<svg xmlns="http://www.w3.org/2000/svg" xmlns:xlink="http://www.w3.org/1999/xlink" version="1.1" x="0px" y="0px" viewBox="0 0 100 125" enable-background="new 0 0 100 100" xml:space="preserve"><path d="M68.9,25.9c-0.1-1.3,1-2.5,2.3-2.6l13.3-0.7c0.7,0,1.4,0.2,1.9,0.7c0.5,0.5,0.7,1.2,0.7,1.9l-0.7,13.3  c-0.1,1.3-1.1,2.3-2.4,2.3c0,0-0.1,0-0.1,0c-1.3-0.1-2.4-1.2-2.3-2.6L82,27.6l-10.6,0.6C70,28.3,68.9,27.2,68.9,25.9z M90,73.4H15.8  l10.8-10.8l4.2,4.2c0.9,0.9,2.5,0.9,3.5,0l11.9-11.9l4.2,4.2c0.5,0.5,1.1,0.7,1.7,0.7c0.6,0,1.3-0.3,1.7-0.7l25.8-25.8  c1-1,1-2.5,0-3.5c-1-1-2.5-1-3.5,0l-24,24l-4.2-4.2c-0.5-0.5-1.1-0.7-1.7-0.7c-0.6,0-1.3,0.3-1.7,0.7L32.6,61.6l-4.2-4.2  c-0.5-0.5-1.1-0.7-1.7-0.7s-1.3,0.3-1.7,0.7L12.4,69.9V24.2c0-1.3-1.1-2.4-2.4-2.4s-2.4,1.1-2.4,2.4v51.6c0,1.3,1.1,2.4,2.4,2.4H90  c1.3,0,2.4-1.1,2.4-2.4C92.5,74.5,91.4,73.4,90,73.4z"/><text x="0" y="115" fill="#000000" font-size="5px" font-weight="bold" font-family="'Helvetica Neue', Helvetica, Arial-Unicode, Arial, Sans-serif">Created by Giannis Choulakis</text><text x="0" y="120" fill="#000000" font-size="5px" font-weight="bold" font-family="'Helvetica Neue', Helvetica, Arial-Unicode, Arial, Sans-serif">from the Noun Project</text></svg>